# xmcd
#
# Track frame offsets: 
#        150
#        14554
#        29678
#        44804
#        61375
#        77870
#        96204
#        117031
#        135726
#        152937
#        171537
#        188722
#        205414
#        223481
#        249834
#
# Disc length: 3532 seconds
#
# Revision: 1
# Processed by: cddbd v1.5.2PL0 Copyright (c) Steve Scherf et al.
# Submitted via: ExactAudioCopy v1.0b3
#
DISCID=e60dca0f
DTITLE=Jay Sean - My Own Way
DYEAR=2008
DGENRE=Soul
TTITLE0=Ride It
TTITLE1=Maybe
TTITLE2=I Won't Tell
TTITLE3=Stay
TTITLE4=Stuck In The Middle
TTITLE5=Good Enough
TTITLE6=Cry
TTITLE7=All Or Nothing
TTITLE8=Runaway
TTITLE9=Waiting
TTITLE10=Used To Love Her
TTITLE11=Just A Friend
TTITLE12=Murder
TTITLE13=Easy As 1, 2, 3
TTITLE14=DATA
EXTD=
EXTT0=
EXTT1=
EXTT2=
EXTT3=
EXTT4=
EXTT5=
EXTT6=
EXTT7=
EXTT8=
EXTT9=
EXTT10=
EXTT11=
EXTT12=
EXTT13=
EXTT14=
PLAYORDER=
